{
    "asset" : {
        "generator" : "Khronos glTF Blender I/O v1.2.75",
        "version" : "2.0"
    },
    "extensionsUsed" : [
        "KHR_texture_transform"
    ],
    "extensionsRequired" : [
        "KHR_texture_transform"
    ],
    "scene" : 0,
    "scenes" : [
        {
            "name" : "Scene",
            "nodes" : [
                3
            ]
        }
    ],
    "nodes" : [
        {
            "mesh" : 0,
            "name" : "Box8223993"
        },
        {
            "mesh" : 1,
            "name" : "Box8223995",
            "rotation" : [
                0,
                0,
                1,
                -4.371139183945161e-08
            ]
        },
        {
            "mesh" : 2,
            "name" : "stitch_result_stitch_all090_2",
            "rotation" : [
                0,
                0,
                1,
                -4.371139183945161e-08
            ]
        },
        {
            "children" : [
                0,
                1,
                2
            ],
            "name" : "\u30ad\u30e3\u30d3\u30cd\u30c3\u30c8",
            "rotation" : [
                0.7071068286895752,
                0,
                0,
                0.7071067094802856
            ],
            "scale" : [
                0.0010000000474974513,
                0.0010000000474974513,
                0.0010000000474974513
            ]
        }
    ],
    "materials" : [
        {
            "doubleSided" : true,
            "emissiveFactor" : [
                0,
                0,
                0
            ],
            "name" : "\u5929\u677f",
            "pbrMetallicRoughness" : {
                "baseColorTexture" : {
                    "extensions" : {
                        "KHR_texture_transform" : {
                            "offset" : [
                                0,
                                -1
                            ]
                        }
                    },
                    "index" : 0,
                    "texCoord" : 0
                },
                "metallicFactor" : 0,
                "roughnessFactor" : 0.4093145728111267
            }
        },
        {
            "doubleSided" : true,
            "emissiveFactor" : [
                0,
                0,
                0
            ],
            "name" : "\u30db\u30fc\u30b9\u767d",
            "pbrMetallicRoughness" : {
                "baseColorTexture" : {
                    "extensions" : {
                        "KHR_texture_transform" : {
                            "offset" : [
                                0,
                                -1
                            ]
                        }
                    },
                    "index" : 1,
                    "texCoord" : 0
                },
                "metallicFactor" : 0,
                "roughnessFactor" : 0.4343145787715912
            }
        },
        {
            "doubleSided" : true,
            "emissiveFactor" : [
                0,
                0,
                0
            ],
            "name" : "\u30c9\u30a2\u767d",
            "pbrMetallicRoughness" : {
                "baseColorTexture" : {
                    "extensions" : {
                        "KHR_texture_transform" : {
                            "offset" : [
                                0,
                                -1
                            ]
                        }
                    },
                    "index" : 2,
                    "texCoord" : 0
                },
                "metallicFactor" : 0,
                "roughnessFactor" : 0.2009812444448471
            }
        },
        {
            "doubleSided" : true,
            "emissiveFactor" : [
                0,
                0,
                0
            ],
            "name" : "\u30d7\u30e9\u3000\u30b0\u30ec\u30fc\u8584\u3044",
            "pbrMetallicRoughness" : {
                "baseColorTexture" : {
                    "extensions" : {
                        "KHR_texture_transform" : {
                            "offset" : [
                                0,
                                -1
                            ]
                        }
                    },
                    "index" : 3,
                    "texCoord" : 0
                },
                "metallicFactor" : 0,
                "roughnessFactor" : 0.4343145787715912
            }
        },
        {
            "doubleSided" : true,
            "emissiveFactor" : [
                0,
                0,
                0
            ],
            "name" : "\u30ad\u30e3\u30d3\u30cd\u30c3\u30c8\u6728",
            "pbrMetallicRoughness" : {
                "baseColorTexture" : {
                    "extensions" : {
                        "KHR_texture_transform" : {
                            "offset" : [
                                0,
                                -1
                            ]
                        }
                    },
                    "index" : 4,
                    "texCoord" : 0
                },
                "metallicFactor" : 0,
                "roughnessFactor" : 0.342647910118103
            }
        },
        {
            "doubleSided" : true,
            "emissiveFactor" : [
                0,
                0,
                0
            ],
            "name" : "\u30a2\u30bf\u30c3\u30c1\u30e1\u30f3\u30c8\u30e1\u30bf\u30eb",
            "pbrMetallicRoughness" : {
                "baseColorFactor" : [
                    0.800000011920929,
                    0.800000011920929,
                    0.800000011920929,
                    1
                ],
                "metallicFactor" : 0.8333333730697632,
                "roughnessFactor" : 0.15000000596046448
            }
        }
    ],
    "meshes" : [
        {
            "name" : "\u30e1\u30c3\u30b7\u30e5",
            "primitives" : [
                {
                    "attributes" : {
                        "POSITION" : 0,
                        "NORMAL" : 1,
                        "TEXCOORD_0" : 2
                    },
                    "indices" : 3,
                    "material" : 0
                },
                {
                    "attributes" : {
                        "POSITION" : 4,
                        "NORMAL" : 5,
                        "TEXCOORD_0" : 6
                    },
                    "indices" : 7,
                    "material" : 1
                },
                {
                    "attributes" : {
                        "POSITION" : 8,
                        "NORMAL" : 9,
                        "TEXCOORD_0" : 10
                    },
                    "indices" : 11,
                    "material" : 2
                },
                {
                    "attributes" : {
                        "POSITION" : 12,
                        "NORMAL" : 13,
                        "TEXCOORD_0" : 14
                    },
                    "indices" : 15,
                    "material" : 3
                }
            ]
        },
        {
            "name" : "\u30e1\u30c3\u30b7\u30e5.001",
            "primitives" : [
                {
                    "attributes" : {
                        "POSITION" : 16,
                        "NORMAL" : 17,
                        "TEXCOORD_0" : 18
                    },
                    "indices" : 19,
                    "material" : 4
                }
            ]
        },
        {
            "name" : "\u30e1\u30c3\u30b7\u30e5.002",
            "primitives" : [
                {
                    "attributes" : {
                        "POSITION" : 20,
                        "NORMAL" : 21,
                        "TEXCOORD_0" : 22
                    },
                    "indices" : 23,
                    "material" : 5
                }
            ]
        }
    ],
    "textures" : [
        {
            "source" : 0
        },
        {
            "source" : 0
        },
        {
            "source" : 0
        },
        {
            "source" : 0
        },
        {
            "source" : 1
        }
    ],
    "images" : [
        {
            "bufferView" : 4,
            "mimeType" : "image/jpeg",
            "name" : "cabinet\u767d"
        },
        {
            "bufferView" : 21,
            "mimeType" : "image/jpeg",
            "name" : "cabinet\u6728\u76ee"
        }
    ],
    "accessors" : [
        {
            "bufferView" : 0,
            "componentType" : 5126,
            "count" : 893,
            "max" : [
                675,
                275.00006103515625,
                -890.0000610351562
            ],
            "min" : [
                -675,
                -275.00006103515625,
                -920.0000610351562
            ],
            "type" : "VEC3"
        },
        {
            "bufferView" : 1,
            "componentType" : 5126,
            "count" : 893,
            "type" : "VEC3"
        },
        {
            "bufferView" : 2,
            "componentType" : 5126,
            "count" : 893,
            "type" : "VEC2"
        },
        {
            "bufferView" : 3,
            "componentType" : 5123,
            "count" : 3588,
            "type" : "SCALAR"
        },
        {
            "bufferView" : 5,
            "componentType" : 5126,
            "count" : 24,
            "max" : [
                612.749755859375,
                -193.47479248046875,
                -919.4198608398438
            ],
            "min" : [
                457.66729736328125,
                -236.09005737304688,
                -921.7359619140625
            ],
            "type" : "VEC3"
        },
        {
            "bufferView" : 6,
            "componentType" : 5126,
            "count" : 24,
            "type" : "VEC3"
        },
        {
            "bufferView" : 7,
            "componentType" : 5126,
            "count" : 24,
            "type" : "VEC2"
        },
        {
            "bufferView" : 8,
            "componentType" : 5123,
            "count" : 36,
            "type" : "SCALAR"
        },
        {
            "bufferView" : 9,
            "componentType" : 5126,
            "count" : 599,
            "max" : [
                -93.93598175048828,
                174.39503479003906,
                -736.7784423828125
            ],
            "min" : [
                -578.2820434570312,
                -181.2188262939453,
                -890.0000610351562
            ],
            "type" : "VEC3"
        },
        {
            "bufferView" : 10,
            "componentType" : 5126,
            "count" : 599,
            "type" : "VEC3"
        },
        {
            "bufferView" : 11,
            "componentType" : 5126,
            "count" : 599,
            "type" : "VEC2"
        },
        {
            "bufferView" : 12,
            "componentType" : 5123,
            "count" : 3024,
            "type" : "SCALAR"
        },
        {
            "bufferView" : 13,
            "componentType" : 5126,
            "count" : 48,
            "max" : [
                650.3306884765625,
                221.72467041015625,
                -1.8333734053480044e-13
            ],
            "min" : [
                -644.1058959960938,
                -258.90557861328125,
                -887.8317260742188
            ],
            "type" : "VEC3"
        },
        {
            "bufferView" : 14,
            "componentType" : 5126,
            "count" : 48,
            "type" : "VEC3"
        },
        {
            "bufferView" : 15,
            "componentType" : 5126,
            "count" : 48,
            "type" : "VEC2"
        },
        {
            "bufferView" : 16,
            "componentType" : 5123,
            "count" : 72,
            "type" : "SCALAR"
        },
        {
            "bufferView" : 17,
            "componentType" : 5126,
            "count" : 1080,
            "max" : [
                672.5241088867188,
                272.73590087890625,
                -1.7053025658242404e-13
            ],
            "min" : [
                -673.10498046875,
                -268.0371398925781,
                -887.8317260742188
            ],
            "type" : "VEC3"
        },
        {
            "bufferView" : 18,
            "componentType" : 5126,
            "count" : 1080,
            "type" : "VEC3"
        },
        {
            "bufferView" : 19,
            "componentType" : 5126,
            "count" : 1080,
            "type" : "VEC2"
        },
        {
            "bufferView" : 20,
            "componentType" : 5123,
            "count" : 2916,
            "type" : "SCALAR"
        },
        {
            "bufferView" : 22,
            "componentType" : 5126,
            "count" : 847,
            "max" : [
                561.7769775390625,
                183.5215606689453,
                -920.0000610351562
            ],
            "min" : [
                440.7320556640625,
                50.52906036376953,
                -1064.8458251953125
            ],
            "type" : "VEC3"
        },
        {
            "bufferView" : 23,
            "componentType" : 5126,
            "count" : 847,
            "type" : "VEC3"
        },
        {
            "bufferView" : 24,
            "componentType" : 5126,
            "count" : 847,
            "type" : "VEC2"
        },
        {
            "bufferView" : 25,
            "componentType" : 5123,
            "count" : 3114,
            "type" : "SCALAR"
        }
    ],
    "bufferViews" : [
        {
            "buffer" : 0,
            "byteLength" : 10716,
            "byteOffset" : 0
        },
        {
            "buffer" : 0,
            "byteLength" : 10716,
            "byteOffset" : 10716
        },
        {
            "buffer" : 0,
            "byteLength" : 7144,
            "byteOffset" : 21432
        },
        {
            "buffer" : 0,
            "byteLength" : 7176,
            "byteOffset" : 28576
        },
        {
            "buffer" : 0,
            "byteLength" : 235638,
            "byteOffset" : 35752
        },
        {
            "buffer" : 0,
            "byteLength" : 288,
            "byteOffset" : 271392
        },
        {
            "buffer" : 0,
            "byteLength" : 288,
            "byteOffset" : 271680
        },
        {
            "buffer" : 0,
            "byteLength" : 192,
            "byteOffset" : 271968
        },
        {
            "buffer" : 0,
            "byteLength" : 72,
            "byteOffset" : 272160
        },
        {
            "buffer" : 0,
            "byteLength" : 7188,
            "byteOffset" : 272232
        },
        {
            "buffer" : 0,
            "byteLength" : 7188,
            "byteOffset" : 279420
        },
        {
            "buffer" : 0,
            "byteLength" : 4792,
            "byteOffset" : 286608
        },
        {
            "buffer" : 0,
            "byteLength" : 6048,
            "byteOffset" : 291400
        },
        {
            "buffer" : 0,
            "byteLength" : 576,
            "byteOffset" : 297448
        },
        {
            "buffer" : 0,
            "byteLength" : 576,
            "byteOffset" : 298024
        },
        {
            "buffer" : 0,
            "byteLength" : 384,
            "byteOffset" : 298600
        },
        {
            "buffer" : 0,
            "byteLength" : 144,
            "byteOffset" : 298984
        },
        {
            "buffer" : 0,
            "byteLength" : 12960,
            "byteOffset" : 299128
        },
        {
            "buffer" : 0,
            "byteLength" : 12960,
            "byteOffset" : 312088
        },
        {
            "buffer" : 0,
            "byteLength" : 8640,
            "byteOffset" : 325048
        },
        {
            "buffer" : 0,
            "byteLength" : 5832,
            "byteOffset" : 333688
        },
        {
            "buffer" : 0,
            "byteLength" : 923231,
            "byteOffset" : 339520
        },
        {
            "buffer" : 0,
            "byteLength" : 10164,
            "byteOffset" : 1262752
        },
        {
            "buffer" : 0,
            "byteLength" : 10164,
            "byteOffset" : 1272916
        },
        {
            "buffer" : 0,
            "byteLength" : 6776,
            "byteOffset" : 1283080
        },
        {
            "buffer" : 0,
            "byteLength" : 6228,
            "byteOffset" : 1289856
        }
    ],
    "buffers" : [
        {
            "byteLength" : 1296084,
            "uri" : "data:application/octet-stream;base64,"
        }
    ]
}
