{
    "asset" : {
        "generator" : "Khronos glTF Blender I/O v1.2.75",
        "version" : "2.0"
    },
    "scene" : 0,
    "scenes" : [
        {
            "name" : "Scene",
            "nodes" : [
                6
            ]
        }
    ],
    "nodes" : [
        {
            "mesh" : 0,
            "name" : "Box8223993",
            "rotation" : [
                -0.7071068286895752,
                0,
                0,
                0.7071067094802856
            ]
        },
        {
            "mesh" : 1,
            "name" : "Box8223994",
            "rotation" : [
                -0.7071068286895752,
                0,
                0,
                0.7071067094802856
            ]
        },
        {
            "mesh" : 2,
            "name" : "Box8223995",
            "rotation" : [
                0,
                0,
                1,
                -4.371139183945161e-08
            ]
        },
        {
            "mesh" : 3,
            "name" : "Sphere003",
            "rotation" : [
                0,
                -0.7071067094802856,
                -0.7071068286895752,
                9.553192370503893e-08
            ],
            "scale" : [
                1.3619999885559082,
                1,
                1
            ]
        },
        {
            "mesh" : 4,
            "name" : "stitch_result_stitch_all090_2",
            "rotation" : [
                0,
                0,
                1,
                -4.371139183945161e-08
            ]
        },
        {
            "mesh" : 5,
            "name" : "\u30aa\u30d6\u30b8\u30a7\u30af\u30c8088",
            "rotation" : [
                -0.7071068286895752,
                0,
                0,
                0.7071067094802856
            ]
        },
        {
            "children" : [
                0,
                1,
                2,
                3,
                4,
                5
            ],
            "name" : "\u30ad\u30e3\u30d3\u30cd\u30c3\u30c8",
            "rotation" : [
                0.7071068286895752,
                0,
                0,
                0.7071067094802856
            ],
            "scale" : [
                0.0010000000474974513,
                0.0010000000474974513,
                0.0010000000474974513
            ]
        }
    ],
    "materials" : [
        {
            "doubleSided" : true,
            "emissiveFactor" : [
                0,
                0,
                0
            ],
            "name" : "\u5929\u677f",
            "pbrMetallicRoughness" : {
                "baseColorFactor" : [
                    0.800000011920929,
                    0.800000011920929,
                    0.800000011920929,
                    1
                ],
                "metallicFactor" : 0,
                "roughnessFactor" : 0.4343145787715912
            }
        },
        {
            "doubleSided" : true,
            "emissiveFactor" : [
                0,
                0,
                0
            ],
            "name" : "\u30db\u30fc\u30b9\u767d",
            "pbrMetallicRoughness" : {
                "baseColorFactor" : [
                    0.800000011920929,
                    0.800000011920929,
                    0.800000011920929,
                    1
                ],
                "metallicFactor" : 0,
                "roughnessFactor" : 0.4343145787715912
            }
        },
        {
            "doubleSided" : true,
            "emissiveFactor" : [
                0,
                0,
                0
            ],
            "name" : "\u30ad\u30e3\u30d3\u30cd\u30c3\u30c8\u6728",
            "pbrMetallicRoughness" : {
                "baseColorFactor" : [
                    0.8000000715255737,
                    0.3613889217376709,
                    0.019499890506267548,
                    1
                ],
                "metallicFactor" : 0,
                "roughnessFactor" : 0.4343145787715912
            }
        },
        {
            "doubleSided" : true,
            "emissiveFactor" : [
                0,
                0,
                0
            ],
            "name" : "\u30c9\u30a2\u767d",
            "pbrMetallicRoughness" : {
                "baseColorFactor" : [
                    0.800000011920929,
                    0.800000011920929,
                    0.800000011920929,
                    1
                ],
                "metallicFactor" : 0,
                "roughnessFactor" : 0.17598125338554382
            }
        },
        {
            "doubleSided" : true,
            "emissiveFactor" : [
                0,
                0,
                0
            ],
            "name" : "\u30a2\u30bf\u30c3\u30c1\u30e1\u30f3\u30c8\u30e1\u30bf\u30eb",
            "pbrMetallicRoughness" : {
                "baseColorFactor" : [
                    0.800000011920929,
                    0.800000011920929,
                    0.800000011920929,
                    1
                ],
                "metallicFactor" : 0.8583333492279053,
                "roughnessFactor" : 0.05000000074505806
            }
        },
        {
            "doubleSided" : true,
            "emissiveFactor" : [
                0,
                0,
                0
            ],
            "name" : "\u30d7\u30e9\u3000\u30b0\u30ec\u30fc\u8584\u3044",
            "pbrMetallicRoughness" : {
                "baseColorFactor" : [
                    0.3672378361225128,
                    0.3672378361225128,
                    0.3672378361225128,
                    1
                ],
                "metallicFactor" : 0,
                "roughnessFactor" : 0.4343145787715912
            }
        }
    ],
    "meshes" : [
        {
            "name" : "\u30e1\u30c3\u30b7\u30e5",
            "primitives" : [
                {
                    "attributes" : {
                        "POSITION" : 0,
                        "NORMAL" : 1,
                        "TEXCOORD_0" : 2
                    },
                    "indices" : 3,
                    "material" : 0
                }
            ]
        },
        {
            "name" : "\u30e1\u30c3\u30b7\u30e5.001",
            "primitives" : [
                {
                    "attributes" : {
                        "POSITION" : 4,
                        "NORMAL" : 5,
                        "TEXCOORD_0" : 6
                    },
                    "indices" : 7,
                    "material" : 1
                }
            ]
        },
        {
            "name" : "\u30e1\u30c3\u30b7\u30e5.002",
            "primitives" : [
                {
                    "attributes" : {
                        "POSITION" : 8,
                        "NORMAL" : 9,
                        "TEXCOORD_0" : 10
                    },
                    "indices" : 11,
                    "material" : 2
                }
            ]
        },
        {
            "name" : "\u30e1\u30c3\u30b7\u30e5.003",
            "primitives" : [
                {
                    "attributes" : {
                        "POSITION" : 12,
                        "NORMAL" : 13,
                        "TEXCOORD_0" : 14
                    },
                    "indices" : 15,
                    "material" : 3
                }
            ]
        },
        {
            "name" : "\u30e1\u30c3\u30b7\u30e5.004",
            "primitives" : [
                {
                    "attributes" : {
                        "POSITION" : 16,
                        "NORMAL" : 17,
                        "TEXCOORD_0" : 18
                    },
                    "indices" : 19,
                    "material" : 4
                }
            ]
        },
        {
            "name" : "\u30e1\u30c3\u30b7\u30e5.005",
            "primitives" : [
                {
                    "attributes" : {
                        "POSITION" : 20,
                        "NORMAL" : 21,
                        "TEXCOORD_0" : 22
                    },
                    "indices" : 23,
                    "material" : 5
                }
            ]
        }
    ],
    "accessors" : [
        {
            "bufferView" : 0,
            "componentType" : 5126,
            "count" : 893,
            "max" : [
                675,
                920.0000610351562,
                275.0000305175781
            ],
            "min" : [
                -675,
                890.0000610351562,
                -275.0000305175781
            ],
            "type" : "VEC3"
        },
        {
            "bufferView" : 1,
            "componentType" : 5126,
            "count" : 893,
            "type" : "VEC3"
        },
        {
            "bufferView" : 2,
            "componentType" : 5126,
            "count" : 893,
            "type" : "VEC2"
        },
        {
            "bufferView" : 3,
            "componentType" : 5123,
            "count" : 3588,
            "type" : "SCALAR"
        },
        {
            "bufferView" : 4,
            "componentType" : 5126,
            "count" : 24,
            "max" : [
                612.7496948242188,
                921.7359619140625,
                -193.47486877441406
            ],
            "min" : [
                457.6672668457031,
                919.4198608398438,
                -236.0901336669922
            ],
            "type" : "VEC3"
        },
        {
            "bufferView" : 5,
            "componentType" : 5126,
            "count" : 24,
            "type" : "VEC3"
        },
        {
            "bufferView" : 6,
            "componentType" : 5126,
            "count" : 24,
            "type" : "VEC2"
        },
        {
            "bufferView" : 7,
            "componentType" : 5123,
            "count" : 36,
            "type" : "SCALAR"
        },
        {
            "bufferView" : 8,
            "componentType" : 5126,
            "count" : 1080,
            "max" : [
                672.5241088867188,
                272.73590087890625,
                -1.7053025658242404e-13
            ],
            "min" : [
                -673.10498046875,
                -268.0371398925781,
                -887.8317260742188
            ],
            "type" : "VEC3"
        },
        {
            "bufferView" : 9,
            "componentType" : 5126,
            "count" : 1080,
            "type" : "VEC3"
        },
        {
            "bufferView" : 10,
            "componentType" : 5126,
            "count" : 1080,
            "type" : "VEC2"
        },
        {
            "bufferView" : 11,
            "componentType" : 5123,
            "count" : 2916,
            "type" : "SCALAR"
        },
        {
            "bufferView" : 12,
            "componentType" : 5126,
            "count" : 681,
            "max" : [
                426.77606201171875,
                -736.7784423828125,
                176.58815002441406
            ],
            "min" : [
                66.77606964111328,
                -916.7784423828125,
                -183.41184997558594
            ],
            "type" : "VEC3"
        },
        {
            "bufferView" : 13,
            "componentType" : 5126,
            "count" : 681,
            "type" : "VEC3"
        },
        {
            "bufferView" : 14,
            "componentType" : 5126,
            "count" : 681,
            "type" : "VEC2"
        },
        {
            "bufferView" : 15,
            "componentType" : 5123,
            "count" : 3540,
            "type" : "SCALAR"
        },
        {
            "bufferView" : 16,
            "componentType" : 5126,
            "count" : 847,
            "max" : [
                561.7769775390625,
                183.5215606689453,
                -920.0000610351562
            ],
            "min" : [
                440.7320556640625,
                50.52906036376953,
                -1064.8458251953125
            ],
            "type" : "VEC3"
        },
        {
            "bufferView" : 17,
            "componentType" : 5126,
            "count" : 847,
            "type" : "VEC3"
        },
        {
            "bufferView" : 18,
            "componentType" : 5126,
            "count" : 847,
            "type" : "VEC2"
        },
        {
            "bufferView" : 19,
            "componentType" : 5123,
            "count" : 3114,
            "type" : "SCALAR"
        },
        {
            "bufferView" : 20,
            "componentType" : 5126,
            "count" : 48,
            "max" : [
                650.3306884765625,
                887.8317260742188,
                221.7246551513672
            ],
            "min" : [
                -644.1058959960938,
                1.6748396018586437e-13,
                -258.9055480957031
            ],
            "type" : "VEC3"
        },
        {
            "bufferView" : 21,
            "componentType" : 5126,
            "count" : 48,
            "type" : "VEC3"
        },
        {
            "bufferView" : 22,
            "componentType" : 5126,
            "count" : 48,
            "type" : "VEC2"
        },
        {
            "bufferView" : 23,
            "componentType" : 5123,
            "count" : 72,
            "type" : "SCALAR"
        }
    ],
    "bufferViews" : [
        {
            "buffer" : 0,
            "byteLength" : 10716,
            "byteOffset" : 0
        },
        {
            "buffer" : 0,
            "byteLength" : 10716,
            "byteOffset" : 10716
        },
        {
            "buffer" : 0,
            "byteLength" : 7144,
            "byteOffset" : 21432
        },
        {
            "buffer" : 0,
            "byteLength" : 7176,
            "byteOffset" : 28576
        },
        {
            "buffer" : 0,
            "byteLength" : 288,
            "byteOffset" : 35752
        },
        {
            "buffer" : 0,
            "byteLength" : 288,
            "byteOffset" : 36040
        },
        {
            "buffer" : 0,
            "byteLength" : 192,
            "byteOffset" : 36328
        },
        {
            "buffer" : 0,
            "byteLength" : 72,
            "byteOffset" : 36520
        },
        {
            "buffer" : 0,
            "byteLength" : 12960,
            "byteOffset" : 36592
        },
        {
            "buffer" : 0,
            "byteLength" : 12960,
            "byteOffset" : 49552
        },
        {
            "buffer" : 0,
            "byteLength" : 8640,
            "byteOffset" : 62512
        },
        {
            "buffer" : 0,
            "byteLength" : 5832,
            "byteOffset" : 71152
        },
        {
            "buffer" : 0,
            "byteLength" : 8172,
            "byteOffset" : 76984
        },
        {
            "buffer" : 0,
            "byteLength" : 8172,
            "byteOffset" : 85156
        },
        {
            "buffer" : 0,
            "byteLength" : 5448,
            "byteOffset" : 93328
        },
        {
            "buffer" : 0,
            "byteLength" : 7080,
            "byteOffset" : 98776
        },
        {
            "buffer" : 0,
            "byteLength" : 10164,
            "byteOffset" : 105856
        },
        {
            "buffer" : 0,
            "byteLength" : 10164,
            "byteOffset" : 116020
        },
        {
            "buffer" : 0,
            "byteLength" : 6776,
            "byteOffset" : 126184
        },
        {
            "buffer" : 0,
            "byteLength" : 6228,
            "byteOffset" : 132960
        },
        {
            "buffer" : 0,
            "byteLength" : 576,
            "byteOffset" : 139188
        },
        {
            "buffer" : 0,
            "byteLength" : 576,
            "byteOffset" : 139764
        },
        {
            "buffer" : 0,
            "byteLength" : 384,
            "byteOffset" : 140340
        },
        {
            "buffer" : 0,
            "byteLength" : 144,
            "byteOffset" : 140724
        }
    ],
    "buffers" : [
        {
            "byteLength" : 140868,
            "uri" : "data:application/octet-stream;base64,"
        }
    ]
}
